<svg width="29" height="29" xmlns="http://www.w3.org/2000/svg" xmlns:xlink="http://www.w3.org/1999/xlink" xml:space="preserve" overflow="hidden"><g><g><path d="M21.6322 15.8056 22.8541 18.7536 17.2052 18.7536C17.1828 20.2475 15.9537 21.4404 14.4599 21.4181 12.9975 21.3962 11.8173 20.216 11.7954 18.7536L6.14135 18.7536 8.65318 12.6875 12.9319 12.6875C12.621 12.1183 12.3919 11.5081 12.2513 10.875L7.44182 10.875 4.22917 18.6322 4.22917 25.375 24.7708 25.375 24.7708 18.6455 23.2202 14.9036C22.733 15.2729 22.199 15.5762 21.6322 15.8056Z" fill="#000000" fill-rule="nonzero" fill-opacity="1"/><path d="M19.0312 3.625C15.8614 3.625 13.2917 6.1947 13.2917 9.36458 13.2917 12.5345 15.8614 15.1042 19.0312 15.1042 22.2011 15.1042 24.7708 12.5345 24.7708 9.36458 24.7722 6.19603 22.2046 3.62633 19.0361 3.625 19.0345 3.625 19.0329 3.625 19.0312 3.625ZM20.4208 9.63857C19.5847 10.4733 18.7434 11.3155 17.8969 12.1652 17.1776 11.4426 16.4567 10.7216 15.7343 10.0023L16.4569 9.2797 17.8969 10.72C18.5959 10.0107 19.2907 9.30658 19.9813 8.60756 20.6719 7.90824 21.0546 7.53305 21.7705 6.84068 21.7908 6.82044 21.8122 6.8005 21.8358 6.78026 21.8584 6.76096 21.8787 6.73906 21.8962 6.71501L22.6291 7.43759C21.7802 8.28403 21.2582 8.80392 20.4208 9.63857Z" fill="#000000" fill-rule="nonzero" fill-opacity="1"/></g></g></svg>