<svg width="30" height="30" xmlns="http://www.w3.org/2000/svg" xmlns:xlink="http://www.w3.org/1999/xlink" xml:space="preserve" overflow="hidden"><g><g><path d="M26.7188 23.625 22.8125 19.7188C22.2812 19.1875 21.5625 19 20.875 19.125L19.5 17.75C20.7188 16.1875 21.4375 14.1875 21.4375 12.0625 21.4375 6.90625 17.2188 2.6875 12.0625 2.6875 6.90625 2.6875 2.6875 6.90625 2.6875 12.0625 2.6875 17.2188 6.90625 21.4375 12.0625 21.4375 14.1875 21.4375 16.1562 20.7188 17.75 19.5L19.125 20.875C19 21.5625 19.1875 22.2812 19.7188 22.8125L23.625 26.7188C24.0625 27.1562 24.625 27.375 25.1875 27.375 25.75 27.375 26.3125 27.1562 26.75 26.7188 27.5625 25.8438 27.5625 24.4688 26.7188 23.625ZM12.0312 19.5312C7.90625 19.5312 4.53125 16.1562 4.53125 12.0312 4.53125 7.90625 7.90625 4.53125 12.0312 4.53125 16.1562 4.53125 19.5312 7.90625 19.5312 12.0312 19.5312 16.1562 16.1562 19.5312 12.0312 19.5312Z" fill="#000000" fill-rule="nonzero" fill-opacity="1"/></g></g></svg>